<?xml version="1.0" encoding="UTF-8" standalone="no"?>
<!-- Created with Inkscape (http://www.inkscape.org/) -->

<svg
   xmlns:dc="http://purl.org/dc/elements/1.1/"
   xmlns:cc="http://creativecommons.org/ns#"
   xmlns:rdf="http://www.w3.org/1999/02/22-rdf-syntax-ns#"
   xmlns:svg="http://www.w3.org/2000/svg"
   xmlns="http://www.w3.org/2000/svg"
   xmlns:sodipodi="http://sodipodi.sourceforge.net/DTD/sodipodi-0.dtd"
   xmlns:inkscape="http://www.inkscape.org/namespaces/inkscape"
   width="85mm"
   height="68.492393mm"
   viewBox="0 0 85 68.492393"
   version="1.1"
   id="svg6668"
   inkscape:version="0.92.0 r15299"
   sodipodi:docname="abbot.svg">
  <defs
     id="defs6662" />
  <sodipodi:namedview
     id="base"
     pagecolor="#ffffff"
     bordercolor="#666666"
     borderopacity="1.0"
     inkscape:pageopacity="0.0"
     inkscape:pageshadow="2"
     inkscape:zoom="0.35"
     inkscape:cx="632.62652"
     inkscape:cy="91.369197"
     inkscape:document-units="mm"
     inkscape:current-layer="layer1"
     showgrid="false"
     fit-margin-top="0"
     fit-margin-left="0"
     fit-margin-right="0"
     fit-margin-bottom="0"
     inkscape:window-width="1280"
     inkscape:window-height="744"
     inkscape:window-x="-4"
     inkscape:window-y="-4"
     inkscape:window-maximized="1" />
  <metadata
     id="metadata6665">
    <rdf:RDF>
      <cc:Work
         rdf:about="">
        <dc:format>image/svg+xml</dc:format>
        <dc:type
           rdf:resource="http://purl.org/dc/dcmitype/StillImage" />
        <dc:title></dc:title>
      </cc:Work>
    </rdf:RDF>
  </metadata>
  <g
     inkscape:label="Layer 1"
     inkscape:groupmode="layer"
     id="layer1"
     transform="translate(154.90922,-104.51573)">
    <g
       transform="translate(-790.75196,-646.40351)"
       id="g6645">
      <path
         style="fill:#159bd7;stroke-width:0.26458332"
         inkscape:connector-curvature="0"
         d="m 708.91763,751.91925 h -72.07462 v 11.07625 h 68.47655 v 0.01 c 1.98226,0 3.565,1.58961 3.565,3.56314 v 37.19433 l -0.009,0.0315 c -0.0122,1.96479 -1.61079,3.54383 -3.57188,3.54383 h -53.81334 c -1.97009,0 -3.58246,-1.59174 -3.58246,-3.57558 v -15.02596 c 0,-1.97352 1.61237,-3.57557 3.58246,-3.57557 h 46.29759 v -11.06144 h -49.90121 c -6.09944,0 -11.04398,4.93554 -11.04398,11.03074 v 22.23903 c 0,6.09944 4.94454,11.04212 11.04398,11.04212 h 61.03064 c 6.10473,0 11.04212,-4.94268 11.04212,-11.04212 v -44.40449 c 0,-6.09865 -4.93739,-11.04556 -11.04212,-11.04556"
         id="path6497" />
      
    </g>
  </g>
</svg>
