<?xml version="1.0" encoding="UTF-8"?>
<svg id="Layer_1" xmlns="http://www.w3.org/2000/svg" viewBox="0 0 1000 1000">
  <defs>
    <style>
      .cls-1 {
        fill: #019949;
      }
    </style>
  </defs>
  <path class="cls-1" d="M500,49.8c-246.84,0-446.93,200.09-446.93,446.93,0,202.86,135.15,374.15,320.32,428.75l.02-.03c69.49-60.8,82.06-175.18,87.19-214.58,1.24-9.51,8.99-70.09,9.71-121.87.05-3.6.2-11.41.22-14.43.04-4.39.28-8.57.48-12.83,7.25-152.17,113.21-222.92,160.55-255.39,7.34-8.93,9.44-18.54,9.44-18.55-57.79,12.99-99.5,57.8-104.99,63.93,0,0,0,0,0-.01h0c25.35-89.55,108.18-105.31,159.94-104.86,5.35.04,10.38.27,14.97.59.96.07,2.06.1,3.26.1,8.4-.03,21.87-1.95,31.25-6.86h0s-7.12,32.76-7.12,32.76c-22.23,113.81-136.55,126.24-174.66,127.49,0,0-3.64.07-6.88.44-3.97.45-4.72,1.31-5.22,1.84-.07.08-.15.17-.22.27-16.69,25.14-43.15,77.05-41.98,173.82.47,38.77,5.67,76.03,15.43,124.02,6.12,30.09,31.13,147.14,101.84,224.11,185.15-54.6,320.31-225.87,320.31-428.72,0-246.84-200.1-446.93-446.93-446.93ZM222.15,535.38l-15.25-12.22c2.88-.82,10.45-3.15,18.31-9.6,10.87-8.92,63.84-60.74,125.39-10.79l16.16,13.64s-15.76,10.79-18.28,12.56c-23.4,16.39-75.72,48.47-126.32,6.43ZM344.82,682.69c-2.86,1.14-20.51,8.45-20.51,8.45l-2.6-20.99c-8.21-78.85,64.14-94.91,77.55-99.15,9.7-3.06,15.79-8.13,18.04-10.09l1.91,19.46c7.58,65.36-47.88,91.66-74.4,102.31ZM408.04,456.96c-39.89-7.87-124.37-29.97-131.07-123.34l-2.49-27.71c3.68,2.15,13.53,7.62,27.9,9.33,19.87,2.36,125.26,5.67,134.64,118.07l1.92,30.03s-26.61-5.55-30.9-6.39ZM488.63,316.63l-11.92,21.01s-15.43-15.42-17.94-17.88c-23.33-22.83-70.35-74.82-33.79-140.48l10.52-19.7c1.53,3.06,5.74,11.06,14.64,18.53,12.31,10.33,81.63,58.9,38.5,138.52ZM568.08,539.37c-8.21-78.86,64.14-94.92,77.55-99.15,9.7-3.06,15.79-8.13,18.05-10.09l1.91,19.46c7.58,65.36-47.88,91.67-74.4,102.31-2.85,1.14-20.51,8.45-20.51,8.45l-2.6-20.99ZM701.69,685.88c-63.12,18.57-98.46-31.62-113.46-55.95-1.62-2.62-11.81-18.77-11.81-18.77l20.25-6.13c76.31-21.49,104.43,47.09,110.87,59.59,4.66,9.03,10.69,14.18,13.01,16.07l-18.86,5.18ZM812.74,506.55c-20.72,62.45-82.09,62.89-110.64,61.35-3.07-.17-22.15-1-22.15-1l6.5-20.13c25.84-74.95,98.21-58.97,112.15-57.14,10.08,1.32,17.75-.7,20.62-1.53l-6.49,18.45Z"/>
</svg>